<?xml version="1.0" encoding="iso-8859-1"?>
<!-- Generator: Adobe Illustrator 19.0.0, SVG Export Plug-In . SVG Version: 6.00 Build 0)  -->
<svg fill='rgb(30, 195, 196)' xmlns="http://www.w3.org/2000/svg" xmlns:xlink="http://www.w3.org/1999/xlink" version="1.1" id="Layer_1" x="0px" y="0px" viewBox="0 0 512 512" style="enable-background:new 0 0 512 512;" xml:space="preserve" width="512" height="512">
<g>
	<path d="M502,0H10C4.478,0,0,4.478,0,10v492c0,5.522,4.478,10,10,10h492c5.522,0,10-4.478,10-10V10C512,4.478,507.522,0,502,0z    M492,20v60H216.181l-30-60H492z M163.819,20l10,20H90c-5.51,0-10,4.49-10,10s4.49,10,10,10h93.82l10,20H20V20H163.819z M492,492   H20V100h472V492z"/>
	<path d="M462,60c5.52,0,10-4.48,10-10c0-5.521-4.48-10-10-10c-5.521,0-10,4.479-10,10C452,55.52,456.479,60,462,60z"/>
	<path d="M422,60c5.52,0,10-4.48,10-10c0-5.521-4.48-10-10-10c-5.521,0-10,4.479-10,10C412,55.52,416.479,60,422,60z"/>
	<path d="M382,60c5.52,0,10-4.48,10-10c0-5.521-4.48-10-10-10c-5.521,0-10,4.479-10,10C372,55.52,376.479,60,382,60z"/>
	<path d="M50,60c5.51,0,10-4.49,10-10s-4.49-10-10-10s-10,4.49-10,10S44.49,60,50,60z"/>
	<path d="M322,260h140c5.522,0,10-4.478,10-10V130c0-5.522-4.478-10-10-10H322c-5.522,0-10,4.478-10,10v120   C312,255.522,316.478,260,322,260z M332,140h120v100H332V140z"/>
	<path d="M322,472h140c5.522,0,10-4.478,10-10V290c0-5.522-4.478-10-10-10H322c-5.522,0-10,4.478-10,10v172   C312,467.522,316.478,472,322,472z M332,300h120v152H332V300z"/>
	<path d="M40,130v130c0,5.522,4.478,10,10,10h230c5.522,0,10-4.478,10-10V130c0-5.522-4.478-10-10-10H50   C44.478,120,40,124.478,40,130z M60,140h210v110H60V140z"/>
	<path d="M225,316c0-5.522-4.478-10-10-10H115c-5.522,0-10,4.478-10,10s4.478,10,10,10h100C220.522,326,225,321.522,225,316z"/>
	<path d="M220,356c0-5.522-4.478-10-10-10h-60c-5.522,0-10,4.478-10,10s4.478,10,10,10h60C215.522,366,220,361.522,220,356z"/>
	<path d="M40,356c0,5.522,4.478,10,10,10h60c5.522,0,10-4.478,10-10s-4.478-10-10-10H50C44.478,346,40,350.478,40,356z"/>
	<path d="M280,346h-30c-5.522,0-10,4.478-10,10s4.478,10,10,10h30c5.522,0,10-4.478,10-10S285.522,346,280,346z"/>
	<path d="M160,396c0,5.51,4.479,10,10,10c5.51,0,10-4.49,10-10s-4.49-10-10-10C164.479,386,160,390.49,160,396z"/>
	<path d="M280,386h-70c-5.521,0-10,4.49-10,10s4.479,10,10,10h70c5.51,0,10-4.49,10-10S285.51,386,280,386z"/>
	<path d="M50,406h80c5.51,0,10-4.49,10-10s-4.49-10-10-10H50c-5.51,0-10,4.49-10,10S44.49,406,50,406z"/>
	<path d="M240,426H50c-5.522,0-10,4.478-10,10s4.478,10,10,10h190c5.522,0,10-4.478,10-10S245.522,426,240,426z"/>
	<path d="M99.508,223.808c0-0.181,0.06-0.51,0.181-0.99l16.739-54.9c0.48-1.499,1.575-2.654,3.285-3.465   c1.71-0.81,3.675-1.215,5.896-1.215c2.219,0,4.185,0.405,5.895,1.215c1.71,0.811,2.805,1.966,3.285,3.465l16.83,54.9   c0.119,0.48,0.18,0.81,0.18,0.99c0,1.561-0.976,2.911-2.925,4.05c-1.95,1.141-3.976,1.71-6.075,1.71c-2.58,0-4.11-0.869-4.59-2.61   l-3.06-11.25h-18.99l-3.06,11.25c-0.481,1.741-2.012,2.61-4.591,2.61c-2.101,0-4.126-0.569-6.074-1.71   C100.482,226.719,99.508,225.368,99.508,223.808z M119.038,204.907h13.14l-6.569-24.12L119.038,204.907z"/>
	<path d="M175.018,225.337v-57.329c0-1.14,0.569-2.13,1.71-2.971c1.139-0.839,2.61-1.26,4.41-1.26h15.93   c6.719,0,12.09,1.71,16.109,5.13s6.03,8.791,6.03,16.11v23.31c0,7.321-2.011,12.69-6.03,16.11s-9.391,5.13-16.109,5.13h-15.93   c-1.8,0-3.271-0.419-4.41-1.26C175.587,227.468,175.018,226.478,175.018,225.337z M189.058,217.327h8.01c5.399,0,8.1-2.999,8.1-9   v-23.31c0-5.999-2.7-9-8.1-9h-8.01V217.327z"/>
</g>















</svg>
