<svg fill='rgb(30, 195, 196)' id="Capa_1" enable-background="new 0 0 512 512" height="512" viewBox="0 0 512 512" width="512" xmlns="http://www.w3.org/2000/svg"><g><g><path d="m0 173v232h144v-232zm108 194h-42v-30h42zm0-65h-42v-30h42zm0-65h-42v-30h42z"/><path d="m0 53v90h512v-90zm89 60h-30v-30h30zm60 0h-30v-30h30z"/></g><g><path d="m481.92 428.79v30.21h-29.25c-19.342-21.79-60.315-67.943-79.88-89.98 7.829-4.831 14.601-11.591 19.32-19.03 6.576 5.77 85.339 74.88 89.81 78.8z"/></g><g><path d="m334.11 284.69c-11.48-3.11-23.99-6.5-35.71-12.32-2.92 18.62 7.97 51.975 16.411 62.71 4.893 6.835 12.141 11.363 20.439 12.74 27.414 4.659 46.971-26.765 30.74-49.35-4.57-6.39-17.83-9.98-31.88-13.78z"/><path d="m174 173v232h190.62l-23.74-26.74c-19.864.162-38.992-9.467-50.47-25.72-16.68-23.32-35.3-84.07-9.91-112.22l9.61-10.66 11.08 9.13c10.63 8.78 25.95 12.93 40.77 16.94 18.5 5.01 37.63 10.2 48.43 25.28 8.13 11.36 11.82 24.58 11.42 37.57l110.19 96.51v-242.09zm59 120h-30v-30h30zm15-60h-45v-30h45zm204 0h-63v-30h63z"/></g></g></svg>