<?xml version="1.0" encoding="iso-8859-1"?>
<!-- Generator: Adobe Illustrator 19.0.0, SVG Export Plug-In . SVG Version: 6.00 Build 0)  -->
<svg fill='rgb(30, 195, 196)' xmlns="http://www.w3.org/2000/svg" xmlns:xlink="http://www.w3.org/1999/xlink" version="1.1" id="Layer_1" x="0px" y="0px" viewBox="0 0 512 512" style="enable-background:new 0 0 512 512;" xml:space="preserve" width="512" height="512">
<g>
	<path d="M111,272h30c5.51,0,10-4.49,10-10s-4.49-10-10-10h-30c-5.51,0-10,4.49-10,10S105.49,272,111,272z"/>
	<path d="M71,272c5.51,0,10-4.49,10-10s-4.49-10-10-10c-5.51,0-10,4.49-10,10S65.49,272,71,272z"/>
	<path d="M111,312h30c5.51,0,10-4.49,10-10s-4.49-10-10-10h-30c-5.51,0-10,4.49-10,10S105.49,312,111,312z"/>
	<path d="M71,312c5.51,0,10-4.49,10-10s-4.49-10-10-10c-5.51,0-10,4.49-10,10S65.49,312,71,312z"/>
	<path d="M441,0H71C43.43,0,21,22.43,21,50v412c0,27.57,22.43,50,50,50h370c27.57,0,50-22.43,50-50V50C491,22.43,468.57,0,441,0z    M471,462c0,16.542-13.458,30-30,30H71c-16.542,0-30-13.458-30-30v-30h430V462z M471,412H41V71h430V412z M471,51H41v-1   c0-16.542,13.458-30,30-30h370c16.542,0,30,13.458,30,30V51z"/>
	<path d="M251,470h10c5.523,0,10-4.478,10-10s-4.477-10-10-10h-10c-5.523,0-10,4.478-10,10S245.477,470,251,470z"/>
	<path d="M166.321,244.838l85,45c1.423,0.756,3.066,1.162,4.679,1.162c1.606,0,3.257-0.41,4.678-1.162l85-45   c3.274-1.733,5.321-5.134,5.321-8.838v-90c0-1.884-0.563-3.769-1.574-5.356c-0.919-1.443-2.232-2.681-3.748-3.482l-85-45   c-2.927-1.549-6.431-1.549-9.357,0l-85,45c-3.2,1.687-5.321,5.224-5.321,8.838v90C161,239.704,163.047,243.104,166.321,244.838z    M331,229.979l-65,34.411v-67.37l23.636-12.513L331,162.609V229.979z M256,112.314L319.627,146l-4.242,2.246L256,179.685   l-59.386-31.439L192.373,146L256,112.314z M181,162.609l41.364,21.898L246,197.021v67.37l-65-34.411V162.609z"/>
	<path d="M91,392h280.002c0.918,0,1.863-0.129,2.745-0.385l70-20c4.293-1.227,7.253-5.15,7.253-9.615s-2.96-8.389-7.253-9.615   c0,0-69.998-19.999-70-20C372.862,332.132,371.921,332,371,332H91c-16.542,0-30,13.458-30,30S74.458,392,91,392z M381,355.257   L404.6,362l-23.6,6.743V355.257z M361,372H119.28c1.11-3.13,1.72-6.494,1.72-10s-0.61-6.87-1.72-10H361V372z M91,352   c5.514,0,10,4.486,10,10s-4.486,10-10,10s-10-4.486-10-10S85.486,352,91,352z"/>
</g>















</svg>
