<?xml version="1.0" encoding="iso-8859-1"?>
<!-- Generator: Adobe Illustrator 19.0.0, SVG Export Plug-In . SVG Version: 6.00 Build 0)  -->
<svg fill='rgb(30, 195, 196)' xmlns="http://www.w3.org/2000/svg" xmlns:xlink="http://www.w3.org/1999/xlink" version="1.1" id="Layer_1" x="0px" y="0px" viewBox="0 0 512 512" style="enable-background:new 0 0 512 512;" xml:space="preserve" width="512" height="512">
<g>
	<path d="M502,0H170H10C4.478,0,0,4.477,0,10v492c0,5.523,4.478,10,10,10h492c5.522,0,10-4.477,10-10V10C512,4.477,507.522,0,502,0z    M492,20v60H216.181l-30-60H492z M20,20h143.819l10,20H90c-5.51,0-10,4.49-10,10c0,5.51,4.49,10,10,10h93.819l10,20H20V20z    M492,492H20V100h472V492z"/>
	<path d="M462,60c5.52,0,10-4.48,10-10s-4.48-10-10-10c-5.521,0-10,4.48-10,10S456.479,60,462,60z"/>
	<path d="M422,60c5.52,0,10-4.48,10-10s-4.48-10-10-10c-5.521,0-10,4.48-10,10S416.479,60,422,60z"/>
	<path d="M382,60c5.52,0,10-4.48,10-10s-4.48-10-10-10c-5.521,0-10,4.48-10,10S376.479,60,382,60z"/>
	<path d="M50,40c-5.51,0-10,4.49-10,10c0,5.51,4.49,10,10,10s10-4.49,10-10C60,44.49,55.51,40,50,40z"/>
	<path d="M211,412h-50c-5.51,0-10,4.49-10,10c0,5.51,4.49,10,10,10h50c5.51,0,10-4.49,10-10C221,416.49,216.51,412,211,412z"/>
	<path d="M381,432c5.51,0,10-4.49,10-10c0-5.51-4.49-10-10-10c-5.521,0-10,4.49-10,10C371,427.51,375.479,432,381,432z"/>
	<path d="M281,422c0,5.51,4.479,10,10,10h50c5.51,0,10-4.49,10-10c0-5.51-4.49-10-10-10h-50C285.479,412,281,416.49,281,422z"/>
	<path d="M421,432h41c5.51,0,10-4.49,10-10c0-5.51-4.49-10-10-10h-41c-5.521,0-10,4.49-10,10C411,427.51,415.479,432,421,432z"/>
	<path d="M241,422c0,5.51,4.479,10,10,10c5.51,0,10-4.49,10-10c0-5.51-4.49-10-10-10C245.479,412,241,416.49,241,422z"/>
	<path d="M124.961,413.317l-70-40c-3.094-1.768-6.896-1.756-9.98,0.034C41.897,375.14,40,378.435,40,382v80   c0,3.565,1.897,6.86,4.98,8.649c1.552,0.9,3.285,1.351,5.02,1.351c1.712,0,3.424-0.439,4.961-1.317l70-40   c3.116-1.781,5.039-5.094,5.039-8.683S128.077,415.098,124.961,413.317z M60,444.768v-45.536L99.845,422L60,444.768z"/>
	<path d="M186,206v100c0,5.523,4.478,10,10,10h40c5.522,0,10-4.477,10-10V206c0-5.523-4.478-10-10-10h-40   C190.478,196,186,200.477,186,206z M206,216h20v80h-20V216z"/>
	<path d="M276,316h40c5.522,0,10-4.477,10-10V206c0-5.523-4.478-10-10-10h-40c-5.522,0-10,4.477-10,10v100   C266,311.523,270.478,316,276,316z M286,216h20v80h-20V216z"/>
</g>















</svg>
