<svg fill='rgb(30, 195, 196)' id="Capa_1" enable-background="new 0 0 510.234 510.234" height="512" viewBox="0 0 510.234 510.234" width="512" xmlns="http://www.w3.org/2000/svg"><g><path d="m143.108 290.522c-7.99-33.39-12.67-70.38-13.63-108.74h-40.68c3.84 42.98 24.04 81.32 54.31 108.74z"/><path d="m160.088 196.972c2.36 43.9 9.86 85.18 21.8 119.87 5.89 2.89 11.98 5.44 18.24 7.62v155.32h-42.32c-1.33-15.01-6.87-28.83-15.44-40.26-33.826 37.671-92.636 37.692-126.49-.01-18.365 24.492-15.75 46.668-15.75 70.27h230v-177.88c3.3.5 6.64.91 10 1.21v-151.33h-45.88c-6.729 12.12-20.67 18.35-34.16 15.19z"/><path d="m421.459 181.782h-40.68c-.96 38.36-5.64 75.36-13.63 108.75 30.269-27.43 50.469-65.77 54.31-108.75z"/><path d="m143.108 43.032c-30.27 27.43-50.47 65.77-54.31 108.75h40.68c.961-38.36 5.64-75.36 13.63-108.75z"/><path d="m160.088 136.592c13.439-3.153 27.406 3.022 34.16 15.19h45.88v-37.88c-21.292-11.819-21.328-42.401 0-54.24v-59.21c-20.73 1.85-40.38 7.51-58.24 16.27-11.939 34.69-19.439 75.97-21.8 119.87z"/><path d="m328.368 16.722c-17.86-8.76-37.51-14.42-58.24-16.27v59.21c21.292 11.819 21.328 42.401 0 54.24v37.88h80.65c-1.309-49.54-9.1-96.39-22.41-135.06z"/><path d="m421.459 151.782c-3.84-42.98-24.04-81.32-54.31-108.75 7.99 33.39 12.67 70.39 13.63 108.75z"/><path d="m494.378 439.512c-33.826 37.671-92.636 37.713-126.49.01-8.57 11.43-14.11 25.25-15.44 40.26h-42.32v-155.32c6.26-2.18 12.35-4.73 18.24-7.62 13.31-38.67 21.1-85.52 22.41-135.06h-80.65v151.33c3.36-.3 6.7-.71 10-1.21v177.88h230c0-24.696 2.402-46.063-15.75-70.27z"/><path d="m388.709 347.822c-6.99 7.989-12.58 21.71-12.58 35.18 0 12.581 3.613 21.711 10.06 31.46 21.221 30.383 65.075 30.876 87.74 2.81 15.455-18.333 16.819-46.987.61-68.21-21.803-28.422-64.178-27.996-85.83-1.24z"/><path d="m33.038 412.772c27.613 42.512 93.926 27.833 100.612-22.454 4.237-31.883-19.798-62.537-54.521-62.537-44.759.001-69.329 49.877-46.091 84.991z"/></g></svg>