<?xml version="1.0" encoding="iso-8859-1"?>
<!-- Generator: Adobe Illustrator 19.0.0, SVG Export Plug-In . SVG Version: 6.00 Build 0)  -->
<svg fill='rgb(30, 195, 196)' xmlns="http://www.w3.org/2000/svg" xmlns:xlink="http://www.w3.org/1999/xlink" version="1.1" id="Layer_1" x="0px" y="0px" viewBox="0 0 512 512" style="enable-background:new 0 0 512 512;" xml:space="preserve" width="512" height="512">
<g>
	<path d="M369.938,253.08c1.952,1.947,4.507,2.92,7.063,2.92c2.561,0,5.122-0.978,7.075-2.933   c0.077-0.078,21.474-23.021,23.813-24.895C421.557,217.217,447,196.823,447,174.624C447,151.521,431.286,136,407.897,136   c-14.006,0-24.058,6.582-30.899,13.883C370.157,142.582,360.105,136,346.103,136C322.714,136,307,151.521,307,174.624   c0,22.208,25.446,42.597,39.116,53.549C348.449,230.043,369.86,253.002,369.938,253.08z M327,174.624   c0-12.01,6.784-18.624,19.103-18.624c11.174,0,18.201,8.543,22.128,15.71c1.755,3.204,5.118,5.195,8.771,5.194   c3.653,0,7.015-1.993,8.77-5.197C389.695,164.542,396.72,156,407.897,156c12.318,0,19.103,6.614,19.103,18.624   c0,12.599-22.972,31.012-31.618,37.942c-4.092,3.278-10.14,9.335-18.382,18.419c-8.244-9.085-14.29-15.142-18.377-18.418   C349.974,205.636,327,187.229,327,174.624z"/>
	<path d="M307,276.5c-5.51,0-10,4.49-10,10c0,5.51,4.49,10,10,10c5.51,0,10-4.49,10-10C317,280.99,312.51,276.5,307,276.5z"/>
	<path d="M447,276.5H347c-5.51,0-10,4.49-10,10c0,5.51,4.49,10,10,10h100c5.51,0,10-4.49,10-10C457,280.99,452.51,276.5,447,276.5z"/>
	<path d="M307,316.5c-5.51,0-10,4.49-10,10c0,5.51,4.49,10,10,10c5.51,0,10-4.49,10-10C317,320.99,312.51,316.5,307,316.5z"/>
	<path d="M447,316.5H347c-5.51,0-10,4.49-10,10c0,5.51,4.49,10,10,10h100c5.51,0,10-4.49,10-10C457,320.99,452.51,316.5,447,316.5z"/>
	<path d="M447,356.5H347c-5.51,0-10,4.49-10,10c0,5.51,4.49,10,10,10h100c5.51,0,10-4.49,10-10C457,360.99,452.51,356.5,447,356.5z"/>
	<path d="M307,356.5c-5.51,0-10,4.49-10,10c0,5.51,4.49,10,10,10c5.51,0,10-4.49,10-10C317,360.99,312.51,356.5,307,356.5z"/>
	<path d="M462,96h-11V50c0-27.57-22.43-50-50-50H227c-27.57,0-50,22.43-50,50v76l-50,0c-27.57,0-50,22.43-50,50v4l-27,0   c-27.57,0-50,22.43-50,50v192c0,27.57,22.43,50,50,50l108.006,0c4.646,22.795,24.847,40,48.994,40h194c27.57,0,50-22.43,50-50v-46   h11c27.57,0,50-22.43,50-50V146C512,118.43,489.57,96,462,96z M77,422c0,16.039-12.652,29.178-28.5,29.962   C32.652,451.177,20,438.038,20,422V230c0-16.542,13.458-30,30-30l27,0V422z M157,452l-70.024,0C93.269,443.637,97,433.247,97,422   V176c0-16.54,13.454-29.996,29.994-30l0.006,0c16.542,0,30,13.458,30,30V452z M401,20c16.542,0,30,13.458,30,30v46H317V50   c0-11.246-3.733-21.638-10.023-30H401z M197,50c0-16.542,13.458-30,30-30h40c16.542,0,30,13.458,30,30v46h-5   c-20.461,0-38.081,12.359-45.813,30H197V50z M297,462c0,16.542-13.458,30-30,30l-60,0c-16.542,0-30-13.458-30-30V176   c0-11.246-3.733-21.638-10.023-30H242v220c0,27.57,22.43,50,50,50h5V462z M431,462c0,16.542-13.458,30-30,30l-94.024,0   c6.291-8.362,10.024-18.754,10.024-30v-46h114V462z M492,366c0,16.542-13.458,30-30,30H292c-16.542,0-30-13.458-30-30V146   c0-16.542,13.458-30,30-30h170c16.542,0,30,13.458,30,30V366z"/>
</g>















</svg>
