<svg fill='rgb(30, 195, 196)' height="512pt" viewBox="0 0 512 512" width="512pt" xmlns="http://www.w3.org/2000/svg"><path d="m100 0h50v79h-50zm0 0"/><path d="m180 0h50v79h-50zm0 0"/><path d="m70 0h-29.09375c-22.554688 0-40.90625 18.351562-40.90625 40.90625v38.09375h70zm0 0"/><path d="m471.09375 0h-211.09375v79h252v-38.09375c0-22.554688-18.351562-40.90625-40.90625-40.90625zm0 0"/><path d="m286.378906 512v-131.859375c0-18.078125 8.554688-35.386719 22.882813-46.300781 21.601562-16.578125 34.050781-41.789063 34.109375-69.132813 0-21.285156-7.507813-41.210937-21.054688-56.839843v23.355468c0 14.09375-5.492187 27.332032-15.460937 37.265625-9.894531 9.859375-23.011719 15.28125-36.953125 15.28125-.0625 0-.121094 0-.183594 0h-26.820312c-14.09375 0-27.328126-5.488281-37.265626-15.460937-9.902343-9.933594-15.328124-23.125-15.28125-37.136719l-.039062-23.410156c-13.566406 15.636719-21.085938 35.582031-21.085938 56.910156.058594 27.308594 12.507813 52.519531 34.15625 69.132813 14.289063 10.90625 22.835938 28.210937 22.835938 46.265624v131.929688zm0 0"/><path d="m0 109v362.09375c0 22.554688 18.351562 40.90625 40.90625 40.90625h155.316406v-131.929688c0-8.761718-4.140625-17.152343-11.074218-22.441406-29.117188-22.347656-45.839844-56.207031-45.917969-92.929687-.003907-36.976563 17.730469-72.171875 47.433593-94.179688l.171876-.125c6.472656-4.65625 14.902343-5.289062 22-1.652343 7.0625 3.621093 11.445312 10.789062 11.445312 18.710937l.070312 43.746094c-.019531 6.054687 2.300782 11.6875 6.53125 15.933593 4.265626 4.277344 9.953126 6.636719 16.015626 6.636719h26.871093.078125c6.003906 0 11.601563-2.316406 15.832032-6.53125 4.28125-4.265625 6.636718-9.953125 6.636718-16.015625v-43.699218c0-8.019532 4.472656-15.238282 11.671875-18.835938 7.164063-3.582031 15.574219-2.84375 21.96875 1.917969 29.6875 22.007812 47.414063 57.195312 47.414063 94.132812-.078125 36.753907-16.804688 70.613281-45.890625 92.933594-6.96875 5.308594-11.101563 13.695313-11.101563 22.46875v131.859375h154.714844c22.554688 0 40.90625-18.351562 40.90625-40.90625v-362.09375zm0 0"/></svg>