<svg fill='rgb(30, 195, 196)' height="512pt" viewBox="-98 0 512 512" width="512pt" xmlns="http://www.w3.org/2000/svg"><path d="m0 452v19.964844c0 22.074218 17.960938 40.035156 40.035156 40.035156h234.929688c22.074218 0 40.035156-17.960938 40.035156-40.035156v-19.964844zm0 0"/><path d="m274.964844 0h-234.929688c-22.074218 0-40.035156 17.960938-40.035156 40.035156v381.964844h315v-381.964844c0-22.074218-17.960938-40.035156-40.035156-40.035156zm-159.574219 279.855469c5.050781 6.566406 3.820313 15.984375-2.746094 21.035156-2.726562 2.09375-5.941406 3.109375-9.132812 3.109375-4.5 0-8.949219-2.015625-11.902344-5.855469l-28.691406-37.300781c-4.910157-6.386719-4.910157-15.304688-.003907-21.6875l28.695313-37.300781c5.050781-6.566407 14.46875-7.796875 21.035156-2.746094 6.566407 5.050781 7.796875 14.46875 2.746094 21.035156l-22.964844 29.855469zm65.496094-64.613281-23 78c-1.925781 6.53125-7.902344 10.761718-14.378907 10.761718-1.40625 0-2.832031-.199218-4.25-.617187-7.945312-2.339844-12.488281-10.683594-10.144531-18.628907l23-78c2.34375-7.945312 10.683594-12.488281 18.628907-10.144531 7.945312 2.34375 12.488281 10.683594 10.144531 18.628907zm-53.886719-146.242188c-8.285156 0-15-6.714844-15-15s6.714844-15 15-15h61c8.285156 0 15 6.714844 15 15s-6.714844 15-15 15zm121.082031 191.84375-28.691406 37.300781c-2.957031 3.839844-7.40625 5.855469-11.902344 5.855469-3.191406 0-6.410156-1.015625-9.132812-3.109375-6.566407-5.050781-7.796875-14.46875-2.746094-21.035156l22.964844-29.855469-22.964844-29.855469c-5.050781-6.566406-3.820313-15.984375 2.746094-21.035156 6.566406-5.046875 15.984375-3.820313 21.035156 2.746094l28.691406 37.300781c4.910157 6.382812 4.910157 15.300781 0 21.6875zm0 0"/></svg>