<?xml version="1.0" encoding="iso-8859-1"?>
<!-- Generator: Adobe Illustrator 19.0.0, SVG Export Plug-In . SVG Version: 6.00 Build 0)  -->
<svg fill='rgb(30, 195, 196)' xmlns="http://www.w3.org/2000/svg" xmlns:xlink="http://www.w3.org/1999/xlink" version="1.1" id="Layer_1" x="0px" y="0px" viewBox="0 0 512 512" style="enable-background:new 0 0 512 512;" xml:space="preserve" width="512" height="512">
<g>
	<path d="M502,0H10C4.477,0,0,4.477,0,10v492c0,5.523,4.477,10,10,10h492c5.522,0,10-4.477,10-10V10C512,4.477,507.522,0,502,0z    M492,80H216.18l-30-60H492V80z M163.82,20l10,20H90c-5.51,0-10,4.49-10,10c0,5.51,4.49,10,10,10h93.82l10,20H20V20H163.82z    M492,492H20V100h472V492z"/>
	<path d="M422,60c5.52,0,10-4.48,10-10s-4.48-10-10-10c-5.521,0-10,4.48-10,10S416.479,60,422,60z"/>
	<path d="M382,60c5.52,0,10-4.48,10-10s-4.48-10-10-10c-5.521,0-10,4.48-10,10S376.479,60,382,60z"/>
	<path d="M462,60c5.52,0,10-4.48,10-10s-4.48-10-10-10c-5.521,0-10,4.48-10,10S456.479,60,462,60z"/>
	<path d="M50,60c5.51,0,10-4.49,10-10c0-5.51-4.49-10-10-10c-5.51,0-10,4.49-10,10C40,55.51,44.49,60,50,60z"/>
	<path d="M96.586,417.163c5.247,9.701,15.358,15.727,26.387,15.727h266.055c11.028,0,21.14-6.026,26.387-15.726   c5.247-9.7,4.758-21.46-1.277-30.692L281.109,183.019c-5.561-8.505-14.947-13.583-25.109-13.583h0   c-10.161,0-19.548,5.078-25.109,13.582L97.864,386.472C91.828,395.703,91.338,407.462,96.586,417.163z M114.603,397.417   L247.63,193.963c1.881-2.877,4.932-4.528,8.37-4.527c3.437,0,6.488,1.65,8.369,4.527l133.027,203.453   c2.944,4.503,1.279,8.655,0.427,10.231s-3.417,5.242-8.796,5.242H122.973c-5.379,0-7.943-3.666-8.796-5.242   C113.324,406.071,111.659,401.919,114.603,397.417z"/>
	<path d="M256,353c5.51,0,10-4.49,10-10V237c0-5.51-4.49-10-10-10c-5.51,0-10,4.49-10,10v106C246,348.51,250.49,353,256,353z"/>
	<path d="M256,393c5.51,0,10-4.49,10-10c0-5.51-4.49-10-10-10c-5.51,0-10,4.49-10,10C246,388.51,250.49,393,256,393z"/>
</g>















</svg>
