<?xml version="1.0" encoding="iso-8859-1"?>
<!-- Generator: Adobe Illustrator 19.0.0, SVG Export Plug-In . SVG Version: 6.00 Build 0)  -->
<svg fill='rgb(30, 195, 196)' xmlns="http://www.w3.org/2000/svg" xmlns:xlink="http://www.w3.org/1999/xlink" version="1.1" id="Layer_1" x="0px" y="0px" viewBox="0 0 512 512" style="enable-background:new 0 0 512 512;" xml:space="preserve" width="512" height="512">
<g>
	<path d="M461.594,0H50.585C22.692,0,0,22.692,0,50.585V382c0,27.57,22.43,50,50,50h135.497c-2.323,11.397-12.424,20-24.497,20   c-24.813,0-45,20.187-45,45v5c0,5.522,4.478,10,10,10h260c5.522,0,10-4.478,10-10v-5c0-24.813-20.187-45-45-45   c-12.073,0-22.174-8.603-24.497-20H462c27.57,0,50-22.43,50-50V50.406C512,22.612,489.388,0,461.594,0z M351,472   c12.073,0,22.175,8.604,24.498,20H136.502c2.323-11.396,12.425-20,24.498-20c23.123,0,42.229-17.531,44.724-40h100.553   c0.815,7.343,3.414,14.151,7.337,20H277.5c-5.51,0-10,4.49-10,10s4.49,10,10,10C277.5,472,350.201,472,351,472z M492,382   c0,16.542-13.458,30-30,30H50c-16.542,0-30-13.458-30-30v-10h472V382z M60,352v-20h120v20H60z M363.699,276L452,209.966v132.068   L363.699,276z M431.929,352H262.071L347,288.488L431.929,352z M347,263.512L262.071,200h169.858L347,263.512z M330.301,276   L242,342.034V209.966L330.301,276z M492,352h-20V190c0-5.522-4.478-10-10-10H232c-5.522,0-10,4.478-10,10v162h-22v-30   c0-5.522-4.478-10-10-10H50c-5.522,0-10,4.478-10,10v30H20V50.585C20,33.721,33.721,20,50.585,20h411.009   C478.359,20,492,33.641,492,50.406V352z"/>
	<path d="M462,40H50c-5.522,0-10,4.478-10,10v100c0,5.522,4.478,10,10,10h412c5.522,0,10-4.478,10-10V50   C472,44.478,467.522,40,462,40z M452,140H60V60h392V140z"/>
	<path d="M237.5,452c-5.51,0-10,4.49-10,10s4.49,10,10,10s10-4.49,10-10S243.01,452,237.5,452z"/>
	<path d="M190,180H50c-5.522,0-10,4.478-10,10v92c0,5.522,4.478,10,10,10h140c5.522,0,10-4.478,10-10v-92   C200,184.478,195.522,180,190,180z M156.573,200L120,224.033L83.428,200H156.573z M60,208.538L101.79,236L60,263.462V208.538z    M83.427,272L120,247.967L156.573,272H83.427z M180,263.462L138.21,236L180,208.538V263.462z"/>
	<path d="M256,110c5.51,0,10-4.49,10-10s-4.49-10-10-10c-5.521,0-10,4.49-10,10S250.479,110,256,110z"/>
	<path d="M136,110h80c5.51,0,10-4.49,10-10s-4.49-10-10-10h-80c-5.521,0-10,4.49-10,10S130.479,110,136,110z"/>
	<path d="M416,110c5.51,0,10-4.49,10-10s-4.49-10-10-10c-5.521,0-10,4.49-10,10S410.479,110,416,110z"/>
	<path d="M296,110h80c5.51,0,10-4.49,10-10s-4.49-10-10-10h-80c-5.521,0-10,4.49-10,10S290.479,110,296,110z"/>
	<circle cx="96" cy="100" r="10"/>
</g>















</svg>
